<svg viewBox="-600 -600 1200 1200" xmlns="http://www.w3.org/2000/svg" width="600" height="600">
  <!-- Lignes radiales -->
  <line x1="0" y1="0" x2="-476.31397208144136" y2="-274.99999999999983" stroke="#ddd" stroke-width="3"/>
  <line x1="0" y1="0" x2="0" y2="0" stroke="#ddd" stroke-width="3"/>
  <line x1="-95.26279441628827" y1="-54.99999999999997" x2="-2.0206672185931328e-14" y2="-110" stroke="#ddd" stroke-width="3"/>
  <line x1="-190.52558883257655" y1="-109.99999999999994" x2="-4.0413344371862656e-14" y2="-220" stroke="#ddd" stroke-width="3"/>
  <line x1="-285.7883832488648" y1="-164.99999999999991" x2="-6.062001655779397e-14" y2="-330" stroke="#ddd" stroke-width="3"/>
  <line x1="-381.0511776651531" y1="-219.9999999999999" x2="-8.082668874372531e-14" y2="-440" stroke="#ddd" stroke-width="3"/>
  <line x1="-476.31397208144136" y1="-274.99999999999983" x2="-1.0103336092965664e-13" y2="-550" stroke="#ddd" stroke-width="3"/>
  <line x1="0" y1="0" x2="-1.0103336092965664e-13" y2="-550" stroke="#ddd" stroke-width="3"/>
  <line x1="0" y1="0" x2="0" y2="0" stroke="#ddd" stroke-width="3"/>
  <line x1="-2.0206672185931328e-14" y1="-110" x2="95.26279441628822" y2="-55.00000000000005" stroke="#ddd" stroke-width="3"/>
  <line x1="-4.0413344371862656e-14" y1="-220" x2="190.52558883257643" y2="-110.0000000000001" stroke="#ddd" stroke-width="3"/>
  <line x1="-6.062001655779397e-14" y1="-330" x2="285.78838324886465" y2="-165.00000000000014" stroke="#ddd" stroke-width="3"/>
  <line x1="-8.082668874372531e-14" y1="-440" x2="381.05117766515286" y2="-220.0000000000002" stroke="#ddd" stroke-width="3"/>
  <line x1="-1.0103336092965664e-13" y1="-550" x2="476.3139720814411" y2="-275.0000000000002" stroke="#ddd" stroke-width="3"/>
  <line x1="0" y1="0" x2="476.3139720814411" y2="-275.0000000000002" stroke="#ddd" stroke-width="3"/>
  <line x1="0" y1="0" x2="0" y2="0" stroke="#ddd" stroke-width="3"/>
  <line x1="95.26279441628822" y1="-55.00000000000005" x2="95.2627944162883" y2="54.99999999999992" stroke="#ddd" stroke-width="3"/>
  <line x1="190.52558883257643" y1="-110.0000000000001" x2="190.5255888325766" y2="109.99999999999984" stroke="#ddd" stroke-width="3"/>
  <line x1="285.78838324886465" y1="-165.00000000000014" x2="285.7883832488649" y2="164.99999999999977" stroke="#ddd" stroke-width="3"/>
  <line x1="381.05117766515286" y1="-220.0000000000002" x2="381.0511776651532" y2="219.9999999999997" stroke="#ddd" stroke-width="3"/>
  <line x1="476.3139720814411" y1="-275.0000000000002" x2="476.3139720814415" y2="274.9999999999996" stroke="#ddd" stroke-width="3"/>
  <line x1="0" y1="0" x2="476.3139720814415" y2="274.9999999999996" stroke="#ddd" stroke-width="3"/>
  <line x1="0" y1="0" x2="0" y2="0" stroke="#ddd" stroke-width="3"/>
  <line x1="95.2627944162883" y1="54.99999999999992" x2="3.3677786976552216e-14" y2="110" stroke="#ddd" stroke-width="3"/>
  <line x1="190.5255888325766" y1="109.99999999999984" x2="6.735557395310443e-14" y2="220" stroke="#ddd" stroke-width="3"/>
  <line x1="285.7883832488649" y1="164.99999999999977" x2="1.0103336092965665e-13" y2="330" stroke="#ddd" stroke-width="3"/>
  <line x1="381.0511776651532" y1="219.9999999999997" x2="1.3471114790620886e-13" y2="440" stroke="#ddd" stroke-width="3"/>
  <line x1="476.3139720814415" y1="274.9999999999996" x2="1.6838893488276108e-13" y2="550" stroke="#ddd" stroke-width="3"/>
  <line x1="0" y1="0" x2="1.6838893488276108e-13" y2="550" stroke="#ddd" stroke-width="3"/>
  <line x1="0" y1="0" x2="0" y2="0" stroke="#ddd" stroke-width="3"/>
  <line x1="3.3677786976552216e-14" y1="110" x2="-95.26279441628827" y2="54.99999999999998" stroke="#ddd" stroke-width="3"/>
  <line x1="6.735557395310443e-14" y1="220" x2="-190.52558883257655" y2="109.99999999999996" stroke="#ddd" stroke-width="3"/>
  <line x1="1.0103336092965665e-13" y1="330" x2="-285.7883832488648" y2="164.99999999999991" stroke="#ddd" stroke-width="3"/>
  <line x1="1.3471114790620886e-13" y1="440" x2="-381.0511776651531" y2="219.99999999999991" stroke="#ddd" stroke-width="3"/>
  <line x1="1.6838893488276108e-13" y1="550" x2="-476.31397208144136" y2="274.9999999999999" stroke="#ddd" stroke-width="3"/>
  <line x1="0" y1="0" x2="-476.31397208144136" y2="274.9999999999999" stroke="#ddd" stroke-width="3"/>
  <line x1="0" y1="0" x2="0" y2="0" stroke="#ddd" stroke-width="3"/>
  <line x1="-95.26279441628827" y1="54.99999999999998" x2="-95.2627944162883" y2="-54.99999999999991" stroke="#ddd" stroke-width="3"/>
  <line x1="-190.52558883257655" y1="109.99999999999996" x2="-190.5255888325766" y2="-109.99999999999982" stroke="#ddd" stroke-width="3"/>
  <line x1="-285.7883832488648" y1="164.99999999999991" x2="-285.78838324886493" y2="-164.99999999999972" stroke="#ddd" stroke-width="3"/>
  <line x1="-381.0511776651531" y1="219.99999999999991" x2="-381.0511776651532" y2="-219.99999999999963" stroke="#ddd" stroke-width="3"/>
  <line x1="-476.31397208144136" y1="274.9999999999999" x2="-476.31397208144153" y2="-274.99999999999955" stroke="#ddd" stroke-width="3"/>
  <!-- Données -->
  <path d="M 0 0 L -425.2803322155727 -245.53571428571416 L -9.020835797290772e-14 -491.0714285714286 Z" fill-opacity="0.7" fill="#FD8FB9"/>
  <path d="M 0 0 L -8.04524911106525e-14 -437.96296296296293 L 379.287051842629 -218.98148148148167 Z" fill-opacity="0.7" fill="#6369F1"/>
  <path d="M 0 0 L 476.3139720814411 -275.0000000000002 L 476.3139720814415 274.9999999999996 Z" fill-opacity="0.7" fill="#FEC54B"/>
  <path d="M 0 0 L 344.00453539215215 198.6111111111108 L 1.2161423074866076e-13 397.2222222222222 Z" fill-opacity="0.7" fill="#8248A1"/>
  <path d="M 0 0 L 1.4433337275665233e-13 471.4285714285714 L -408.2691189269497 235.71428571428558 Z" fill-opacity="0.7" fill="#8ED4A3"/>
  <path d="M 0 0 L -341.9690055969322 197.43589743589732 L -341.96900559693233 -197.43589743589706 Z" fill-opacity="0.7" fill="#F26C85"/>
  <!-- Étiquettes d'échelle -->
  <text x="0" y="-110" text-anchor="middle" font-size="32" font-weight="bold" dominant-baseline="middle" fill="#666">1</text>
  <text x="0" y="-220" text-anchor="middle" font-size="32" font-weight="bold" dominant-baseline="middle" fill="#666">2</text>
  <text x="0" y="-330" text-anchor="middle" font-size="32" font-weight="bold" dominant-baseline="middle" fill="#666">3</text>
  <text x="0" y="-440" text-anchor="middle" font-size="32" font-weight="bold" dominant-baseline="middle" fill="#666">4</text>
  <text x="0" y="-550" text-anchor="middle" font-size="32" font-weight="bold" dominant-baseline="middle" fill="#666">5</text>
</svg>
